<?xml version="1.0" standalone="no"?>
<!DOCTYPE svg PUBLIC "-//W3C//DTD SVG 20010904//EN"
 "http://www.w3.org/TR/2001/REC-SVG-20010904/DTD/svg10.dtd">
<svg version="1.0" xmlns="http://www.w3.org/2000/svg"
 width="640.000000pt" height="640.000000pt" viewBox="0 0 640.000000 640.000000"
 preserveAspectRatio="xMidYMid meet">
<metadata>
Created by potrace 1.11, written by Peter Selinger 2001-2013
</metadata>
<g transform="translate(0.000000,640.000000) scale(0.100000,-0.100000)"
fill="#000000" stroke="none">
<path d="M2487 6394 c-3 -3 2 -20 11 -37 10 -20 18 -72 22 -142 8 -145 27
-178 107 -189 43 -5 72 9 74 37 0 7 3 21 5 32 3 11 5 48 5 82 2 92 -17 118
-128 175 -50 26 -93 45 -96 42z"/>
<path d="M3533 6266 c-63 -69 -152 -203 -167 -252 -4 -13 -29 -31 -69 -49 -75
-34 -113 -67 -128 -113 -16 -47 -19 -155 -7 -224 9 -54 11 -57 41 -60 73 -7
120 8 154 48 l32 39 -13 -46 c-17 -55 -15 -100 7 -194 9 -38 20 -90 25 -115 7
-40 10 -45 32 -42 14 2 44 14 68 27 23 13 42 22 42 21 0 -2 -7 -23 -16 -47
-24 -69 -29 -184 -10 -249 20 -68 63 -143 112 -195 l37 -40 34 71 c42 89 72
191 79 275 9 110 -33 247 -101 324 l-26 30 -18 -24 -18 -24 -7 51 c-3 27 -18
82 -32 121 l-26 71 51 49 c51 50 61 52 61 18 0 -28 64 -156 97 -195 l28 -32
50 23 c79 38 90 56 89 146 0 64 -6 87 -34 146 -28 59 -33 82 -34 147 0 43 -3
78 -6 78 -2 0 -32 -27 -65 -60 l-60 -60 3 63 c3 45 -3 83 -21 140 -23 72 -94
206 -109 207 -3 0 -37 -33 -75 -74z m132 -91 c12 -27 11 -33 -12 -65 -15 -19
-39 -46 -56 -59 l-29 -24 6 29 c3 16 8 43 10 59 6 36 17 94 21 115 2 8 4 22 4
30 1 16 36 -36 56 -85z m-99 30 c-6 -30 -13 -55 -16 -55 -4 0 -13 11 -20 25
-12 23 -11 28 15 55 16 17 29 30 30 30 0 0 -4 -25 -9 -55z m-51 -69 c13 -13
25 -30 26 -37 3 -17 -11 -99 -17 -99 -10 0 -73 69 -75 81 -2 12 31 79 39 79 2
0 14 -11 27 -24z m182 -48 c1 -7 4 -32 8 -55 l7 -42 -56 -36 c-31 -19 -67 -40
-82 -45 l-26 -10 7 42 c4 24 13 46 19 50 35 21 76 57 93 80 20 30 29 35 30 16z
m-263 -70 c-3 -4 -12 -8 -20 -8 -12 0 -13 4 -3 21 9 17 13 19 19 8 5 -7 6 -17
4 -21z m80 -64 c7 -19 -15 -125 -25 -119 -4 3 -21 22 -38 43 l-30 38 19 42
c19 42 20 43 44 27 13 -9 27 -23 30 -31z m172 -68 c-19 -48 -55 -90 -99 -112
-36 -19 -49 -11 -36 23 8 23 8 24 -6 13 -13 -11 -15 -9 -13 15 2 23 13 32 73
62 38 19 74 38 79 43 18 18 19 0 2 -44z m-201 -107 c0 -11 -66 -62 -72 -55 -4
3 -6 22 -5 41 0 19 1 52 1 72 l1 37 38 -44 c20 -24 37 -47 37 -51z m-88 -111
c-3 -8 -6 -5 -6 6 -1 11 2 17 5 13 3 -3 4 -12 1 -19z"/>
<path d="M2780 6210 c0 -16 0 -31 0 -32 2 -20 -38 -114 -70 -163 -61 -93 -73
-144 -55 -222 5 -21 93 -93 114 -93 17 0 95 86 129 144 41 67 53 123 37 169
-14 40 -135 227 -147 227 -4 0 -8 -13 -8 -30z"/>
<path d="M2075 6116 c28 -53 37 -85 45 -158 12 -101 37 -166 77 -198 22 -17
24 -24 18 -60 -7 -42 -25 -65 -25 -32 0 28 -28 92 -57 131 -41 54 -83 63 -257
53 l-29 -2 45 -40 c27 -23 58 -65 76 -102 36 -74 47 -88 85 -113 29 -19 80
-23 100 -7 37 28 42 21 43 -52 1 -110 51 -194 141 -240 l31 -16 44 48 c24 27
54 72 68 99 14 28 32 53 41 56 20 6 76 121 90 188 21 99 -3 217 -66 324 -28
49 -128 155 -146 155 -5 0 -20 -23 -33 -51 -23 -48 -25 -49 -38 -30 -20 28
-153 83 -255 106 l-33 7 35 -66z"/>
<path d="M1704 6159 c-11 -4 -14 -8 -8 -8 22 -2 85 -76 110 -130 54 -113 100
-149 169 -130 67 19 74 37 47 125 -17 54 -55 112 -87 130 -22 14 -53 18 -121
19 -51 1 -100 -2 -110 -6z"/>
<path d="M4165 6155 c-5 -2 -44 -13 -85 -26 -133 -39 -152 -64 -157 -207 -4
-105 -3 -106 75 -106 37 -1 48 4 72 31 29 32 50 88 50 133 0 40 20 100 46 142
23 36 23 41 -1 33z"/>
<path d="M2989 5928 c-103 -190 -116 -268 -67 -386 26 -62 72 -144 108 -192
17 -23 18 -23 45 -6 63 42 87 80 87 143 0 66 -20 139 -57 214 -45 88 -67 171
-68 252 -1 20 -4 37 -8 37 -3 0 -21 -28 -40 -62z"/>
<path d="M1528 5952 c-10 -36 3 -140 23 -197 36 -100 96 -178 194 -252 54 -41
175 -107 182 -99 4 3 8 41 9 83 4 91 -15 178 -53 242 -56 97 -180 189 -300
224 -47 14 -51 14 -55 -1z"/>
<path d="M4169 5864 c-92 -62 -170 -161 -203 -259 -10 -27 -21 -52 -25 -55 -3
-3 -23 -26 -44 -51 -88 -109 -116 -239 -82 -383 10 -42 24 -81 32 -87 29 -25
237 220 259 305 3 12 16 34 28 47 13 14 35 43 50 65 l26 40 58 -11 c39 -9 63
-9 77 -2 19 10 19 9 2 -14 -114 -156 -179 -270 -219 -384 -30 -84 -28 -140 8
-196 38 -60 137 -115 179 -98 31 12 35 11 35 -11 0 -38 28 -89 74 -135 25 -25
52 -45 60 -45 9 0 12 -7 9 -19 -4 -14 -17 -19 -62 -24 -35 -3 -78 -16 -112
-33 -30 -16 -56 -30 -59 -31 -3 -2 -5 34 -5 80 0 56 -6 97 -19 130 -18 47 -18
48 -42 32 -13 -8 -34 -22 -47 -30 -18 -11 -24 -12 -24 -3 0 28 -15 153 -18
159 -2 3 -7 21 -10 40 -9 58 -37 174 -44 181 -3 4 -47 -34 -98 -85 -94 -95
-187 -217 -230 -300 -44 -88 -29 -182 40 -244 55 -49 79 -60 110 -52 15 4 27
5 27 1 0 -3 10 4 23 16 l22 21 0 -107 c0 -90 4 -117 24 -167 13 -33 28 -64 32
-69 4 -4 23 8 43 29 20 20 36 34 36 31 0 -3 -11 -35 -25 -72 -14 -36 -25 -68
-25 -70 0 -2 18 -7 40 -10 37 -6 57 -24 26 -24 -24 0 -115 -90 -153 -153 l-38
-61 -9 37 c-8 31 -13 36 -29 31 -17 -5 -19 -3 -12 12 14 33 14 245 0 319 -22
121 -27 135 -42 135 -20 0 -192 -175 -223 -228 -14 -23 -28 -42 -31 -42 -13 0
-33 64 -22 67 30 10 104 65 126 94 28 38 44 90 41 132 -2 16 -14 63 -28 105
-28 88 -39 147 -38 210 l1 43 -49 -35 c-28 -20 -52 -36 -54 -36 -2 0 1 21 7
46 17 71 -5 171 -58 279 -73 146 -65 143 -146 56 -38 -40 -77 -87 -85 -103
-19 -36 -21 -35 -27 19 -6 54 -42 114 -114 188 -88 91 -195 185 -203 180 -8
-5 -17 -44 -25 -108 -3 -17 -8 -52 -13 -77 -5 -25 -8 -102 -8 -172 1 -71 0
-128 -2 -128 -4 0 -47 102 -62 148 -7 23 -16 42 -20 42 -4 0 -11 -19 -16 -42
l-10 -43 -18 37 c-17 34 -114 139 -136 146 -6 2 -10 8 -10 13 0 6 15 -1 33
-15 18 -14 53 -33 77 -41 44 -15 44 -15 68 12 51 58 103 150 124 216 41 138
-1 270 -133 411 l-71 76 -18 -22 c-24 -31 -76 -133 -95 -188 -54 -151 -69
-317 -32 -373 9 -14 17 -29 17 -33 0 -14 -38 43 -65 96 l-28 54 -34 -74 c-58
-125 -111 -301 -118 -390 -6 -82 73 -176 182 -219 72 -28 108 -23 154 20 17
16 32 29 34 29 2 0 -3 -22 -10 -49 -38 -144 12 -299 140 -438 l45 -48 30 35
c17 19 49 73 73 120 39 80 42 90 42 170 0 74 -3 91 -27 134 -16 27 -28 50 -28
53 0 2 14 -4 32 -13 18 -9 56 -17 85 -18 29 0 53 -3 54 -6 0 -3 2 -24 4 -47 2
-23 11 -57 21 -75 32 -65 129 -148 154 -133 6 4 10 -12 10 -38 0 -28 9 -61 26
-92 l25 -48 -23 -31 c-12 -17 -36 -52 -53 -78 l-31 -47 -13 52 c-29 116 -128
289 -175 306 -17 7 -23 2 -38 -32 -25 -56 -76 -223 -84 -277 -18 -122 1 -223
56 -292 l29 -36 -55 -109 c-47 -91 -56 -117 -58 -166 0 -31 -2 -57 -4 -57 -2
0 -16 12 -31 28 -16 15 -48 44 -73 64 -40 33 -46 44 -51 87 -3 28 -13 64 -22
81 -16 31 -16 31 21 68 49 50 94 145 94 200 0 60 -20 102 -91 190 -63 78 -129
199 -129 236 0 18 -2 18 -14 6 -8 -8 -31 -42 -50 -74 -23 -39 -36 -53 -37 -40
0 10 -2 26 -4 34 -2 8 -5 27 -8 43 -9 45 -55 138 -96 192 -46 61 -136 151
-173 173 -16 9 -34 34 -44 61 -9 25 -24 57 -32 71 -30 49 -127 130 -194 162
-50 24 -66 37 -61 48 26 64 35 103 37 151 0 32 4 55 9 52 4 -2 7 -13 7 -25 0
-40 32 -129 63 -175 47 -70 106 -106 176 -107 l56 -1 22 65 c28 81 29 190 2
249 -10 22 -48 70 -84 106 -69 69 -231 182 -243 170 -4 -4 -7 -64 -7 -134 0
-127 0 -128 -16 -87 -22 59 -56 95 -114 121 -27 13 -72 33 -100 45 -63 28
-129 74 -172 118 -32 32 -33 33 -33 10 -2 -54 -12 -183 -16 -187 -2 -3 -32 5
-67 17 -63 22 -113 34 -227 57 -14 2 -44 7 -68 10 l-43 6 30 -53 c38 -68 56
-121 76 -233 19 -100 31 -128 70 -168 l28 -27 -41 14 c-23 8 -69 18 -102 22
l-60 7 5 -39 c3 -22 8 -45 10 -52 3 -8 0 -10 -8 -5 -6 4 -73 8 -147 9 -112 0
-144 4 -188 21 -28 12 -52 19 -52 16 0 -10 75 -150 108 -200 20 -31 48 -58 69
-68 46 -22 143 -22 231 0 l71 17 28 -27 c34 -32 83 -55 119 -55 41 0 104 22
104 36 0 8 23 -1 61 -23 l61 -37 -7 -50 c-3 -28 -7 -52 -8 -53 -3 -2 -98 19
-167 36 -19 5 -64 20 -100 34 -97 37 -250 55 -250 29 0 -7 16 -62 36 -122 45
-141 89 -192 208 -250 46 -22 89 -40 97 -40 8 0 25 -20 38 -45 13 -24 40 -62
61 -85 l37 -40 -43 0 c-36 0 -51 7 -90 41 -73 63 -143 107 -209 130 -109 39
-293 32 -425 -16 -67 -24 -120 -48 -120 -55 0 -3 51 -58 113 -121 91 -93 123
-120 170 -139 54 -23 56 -25 35 -36 -17 -9 -30 -9 -62 3 -58 22 -160 19 -230
-6 -51 -18 -165 -83 -220 -125 -18 -14 -17 -16 15 -47 99 -92 306 -196 412
-206 51 -5 60 -9 73 -34 8 -16 13 -29 12 -29 -2 0 -24 7 -50 14 -59 18 -101
12 -153 -24 -47 -33 -175 -149 -175 -159 0 -4 27 -6 60 -5 60 2 136 -15 174
-39 34 -22 108 -40 155 -38 52 2 92 23 115 62 l17 29 42 -24 c66 -38 134 -54
224 -52 46 2 86 6 90 9 16 16 -86 181 -158 255 -39 41 -138 112 -156 112 -4 0
-14 4 -22 9 -11 7 -10 13 5 33 17 23 21 24 59 13 22 -6 46 -10 53 -9 6 1 20 2
30 3 21 2 72 46 96 83 l18 28 -52 60 c-29 33 -61 65 -71 71 -27 14 -23 27 9
31 22 2 76 -27 120 -67 2 -1 5 -15 8 -31 26 -155 74 -326 114 -404 41 -79 96
-113 190 -116 70 -2 154 18 182 43 56 49 53 226 -5 308 -43 62 -97 89 -205
104 -89 13 -165 36 -228 70 l-39 21 45 -8 c25 -4 105 -7 178 -6 162 1 157 -2
136 99 -9 43 -41 102 -61 114 -15 8 -16 10 -3 14 51 17 59 14 102 -30 77 -79
166 -120 278 -125 36 -2 80 -1 98 2 l34 5 -42 82 c-23 45 -64 109 -90 142 -42
51 -48 63 -41 87 9 34 -4 126 -23 163 -8 14 -27 38 -43 53 -27 25 -49 38 -171
104 -28 15 -64 40 -79 56 l-26 27 21 66 c26 78 27 106 6 151 -20 42 -70 83
-155 126 l-63 33 41 7 c23 4 53 14 66 22 21 14 28 14 68 1 24 -8 67 -16 94
-19 28 -2 53 -5 56 -5 3 -1 3 -23 -1 -49 -17 -132 16 -345 64 -421 47 -72 71
-87 204 -127 6 -2 12 -13 12 -24 0 -55 95 -223 166 -294 21 -21 63 -52 91 -68
52 -29 53 -30 52 -77 -1 -26 4 -57 10 -69 9 -17 9 -22 -1 -22 -20 0 -119 39
-155 62 -39 23 -39 22 -18 -77 8 -38 13 -70 12 -72 -2 -1 -25 9 -52 23 -28 14
-75 32 -105 40 -138 39 -270 95 -270 116 0 4 -4 8 -9 8 -24 0 67 -319 124
-435 35 -70 58 -93 124 -123 48 -22 72 -26 167 -28 61 -2 130 2 154 7 46 10
85 12 138 5 40 -5 45 -9 49 -44 22 -195 52 -258 140 -298 18 -7 54 -14 81 -14
49 0 50 -1 92 -57 46 -62 124 -144 152 -159 36 -20 74 -378 45 -418 -12 -16
-16 -17 -48 -3 -69 29 -172 187 -189 292 -11 68 -49 164 -81 203 -13 16 -40
40 -59 52 -25 16 -46 46 -73 100 -47 95 -113 171 -191 222 -61 39 -147 70
-201 72 -29 1 -30 -1 -31 -44 -2 -77 58 -216 127 -294 16 -19 29 -36 29 -39 0
-3 20 -39 45 -81 43 -73 44 -87 5 -66 -10 5 -36 13 -57 17 -77 14 -372 5 -486
-15 l-37 -7 122 -122 c137 -136 191 -183 270 -231 151 -91 283 -95 467 -16 69
30 69 27 0 130 l-47 72 49 -13 c60 -16 54 -15 83 -15 19 0 33 -16 74 -89 85
-149 100 -196 116 -371 3 -30 8 -86 12 -125 4 -38 14 -119 24 -180 17 -105 20
-302 6 -372 -3 -15 -8 -57 -11 -93 -10 -110 -46 -301 -72 -380 -75 -230 -159
-427 -228 -535 -100 -157 -240 -230 -575 -300 -8 -2 -62 -13 -120 -25 -111
-22 -270 -67 -270 -76 0 -2 37 -2 83 1 45 2 127 7 182 10 55 3 127 7 160 10
218 15 293 18 400 18 66 0 149 -3 185 -7 36 -4 81 -9 100 -11 54 -6 327 -18
405 -18 39 0 117 4 175 8 58 5 255 9 437 9 183 1 333 4 333 7 0 10 -181 67
-245 77 -33 5 -152 10 -265 11 -238 1 -287 5 -349 26 -50 16 -83 55 -106 122
-17 48 -12 81 30 228 46 161 78 321 90 451 3 32 8 73 10 89 7 51 15 193 20
346 3 81 7 162 9 180 3 19 8 61 11 94 3 33 8 69 11 80 2 11 6 33 9 49 24 149
115 240 385 386 63 35 143 82 177 106 l62 43 22 -30 c44 -62 101 -65 250 -14
76 27 123 37 174 38 83 2 208 -12 254 -29 8 -2 30 -7 50 -10 l36 -6 -78 75
c-80 77 -166 141 -202 149 -16 4 -10 9 27 27 25 11 70 39 99 61 41 30 63 40
94 41 58 1 86 5 125 16 52 15 207 14 274 -2 l59 -14 -49 50 c-90 93 -197 176
-249 194 -73 24 -164 21 -290 -10 -84 -21 -145 -46 -145 -60 0 -5 -26 -22 -58
-37 -85 -40 -169 -126 -201 -205 -10 -25 -28 -40 -80 -64 -93 -46 -142 -79
-139 -97 2 -10 -22 -25 -77 -47 -44 -18 -82 -31 -84 -29 -2 1 3 26 10 54 13
50 16 53 109 114 114 76 194 157 265 270 6 9 33 22 61 29 105 27 189 99 215
186 18 62 28 104 34 146 3 22 8 49 10 60 2 11 4 48 4 81 l1 62 51 -15 c74 -22
200 -14 259 17 93 47 179 139 236 253 l24 47 -27 11 c-65 25 -174 41 -286 40
l-118 0 7 42 c13 85 31 144 64 205 l29 53 -42 -5 c-62 -7 -273 -63 -325 -86
-24 -11 -46 -20 -48 -20 -1 0 2 15 7 33 5 17 12 63 16 101 l6 68 -31 -7 -31
-6 29 58 c20 38 39 104 56 193 31 160 41 191 54 170 12 -19 147 -26 215 -11
90 20 143 66 205 176 26 46 83 186 94 228 l7 28 -53 -6 c-43 -6 -143 -32 -229
-61 -14 -5 -15 1 -3 55 19 92 5 168 -53 294 -20 42 -40 77 -44 77 -4 0 -35
-26 -68 -57 l-60 -58 -24 75 -23 75 35 20 c19 11 50 40 69 65 63 85 75 98 114
120 22 12 37 24 35 27 -11 10 -116 29 -175 32 -63 2 -64 2 -107 -42 -30 -29
-46 -39 -49 -30 -3 7 6 25 21 40 30 32 59 96 69 150 11 60 39 118 78 161 41
44 44 52 19 48 -10 -2 -47 -7 -83 -12 -36 -4 -67 -8 -70 -9 -3 -1 -23 -5 -45
-9 -22 -5 -54 -17 -72 -27 l-31 -20 -17 51 c-9 27 -20 50 -25 50 -4 0 -32 -16
-61 -36z m-1397 -266 l29 -37 -26 -55 c-14 -29 -32 -59 -40 -66 -13 -11 -15
-7 -16 21 -2 57 -7 122 -12 167 -5 43 -5 44 15 25 11 -10 33 -35 50 -55z m-98
-10 c7 -52 -1 -59 -28 -29 -16 18 -16 21 -1 51 9 18 18 30 20 28 1 -1 6 -24 9
-50z m-15 -87 c25 -23 31 -37 31 -70 0 -47 -5 -49 -54 -21 -40 24 -48 41 -40
78 13 52 20 53 63 13z m197 -46 l15 -36 -60 -59 c-32 -33 -64 -60 -70 -60 -6
0 -11 18 -11 41 0 32 7 49 31 77 17 20 38 51 46 71 16 39 19 37 49 -34z m-170
-116 c14 -11 19 -122 5 -118 -25 9 -122 86 -127 101 -3 9 -2 33 1 52 l7 34 51
-30 c29 -17 57 -34 63 -39z m185 -21 c-3 -57 -34 -113 -83 -148 -23 -17 -43
-28 -45 -26 -2 2 -5 27 -5 55 -2 44 1 54 22 68 14 10 43 36 65 58 22 23 42 40
44 38 3 -2 4 -22 2 -45z m-258 -86 c29 -21 61 -44 72 -49 16 -9 21 -23 23 -67
1 -31 -1 -56 -6 -56 -11 0 -85 51 -100 69 -27 33 -63 141 -47 141 3 0 29 -17
58 -38z m2055 -103 c12 -29 20 -59 17 -68 -9 -30 -95 -110 -95 -89 0 24 44
208 50 208 3 0 15 -23 28 -51z m-80 -7 c-6 -23 -14 -42 -18 -42 -8 0 -20 24
-20 40 0 10 42 52 46 47 2 -1 -2 -22 -8 -45z m-1819 -28 c-15 -16 -25 -21 -28
-13 -2 7 4 18 15 26 30 22 39 15 13 -13z m1761 -14 c0 -5 9 -17 19 -27 17 -16
18 -23 9 -65 -6 -27 -14 -48 -18 -48 -4 0 -17 11 -29 24 -19 20 -21 28 -12 44
6 12 11 34 11 51 0 17 5 31 10 31 6 0 10 -4 10 -10z m180 -120 l0 -48 -72 -35
c-40 -20 -74 -34 -76 -32 -2 1 0 19 3 39 6 28 16 41 51 61 24 14 51 36 61 49
24 33 33 24 33 -34z m-3493 34 c16 -4 26 -18 34 -46 5 -22 9 -44 7 -49 -3 -9
-108 86 -108 97 0 6 42 4 67 -2z m2234 -79 l31 -65 -20 -27 c-25 -35 -80 -88
-86 -82 -2 2 2 36 9 74 7 39 16 91 20 118 3 26 8 47 11 47 3 0 19 -29 35 -65z
m-2273 16 c14 -9 13 -10 -9 -11 -18 0 -28 6 -32 19 -6 25 4 36 15 17 5 -9 16
-20 26 -25z m138 24 c18 -12 20 -22 17 -62 -6 -71 -9 -77 -31 -55 -12 12 -21
40 -25 75 -6 62 1 69 39 42z m697 -114 c-4 -104 -13 -103 -71 8 -29 55 -52
104 -52 110 0 6 28 -5 63 -23 l62 -33 -2 -62z m1352 72 c-3 -26 -9 -50 -11
-53 -6 -5 -34 29 -34 41 0 8 40 59 47 59 2 0 2 -21 -2 -47z m1140 10 c13 -16
25 -34 25 -42 0 -21 -22 -91 -30 -91 -4 0 -21 21 -39 46 l-33 46 18 34 c10 19
22 34 27 34 4 0 19 -12 32 -27z m-2600 -92 c-3 -2 -16 1 -30 7 -25 12 -25 12
-16 86 0 5 12 -13 26 -39 13 -27 22 -51 20 -54z m-675 47 c26 -28 25 -38 -3
-38 -16 0 -26 9 -34 30 -14 37 5 42 37 8z m869 -42 c26 -27 32 -40 27 -59 -9
-38 -59 -147 -67 -147 -4 0 -14 16 -24 36 -15 32 -15 39 -1 81 9 26 16 64 16
85 0 21 4 38 8 38 4 0 23 -15 41 -34z m1243 -61 c-3 -16 -5 -40 -6 -52 0 -32
-8 -29 -55 23 -28 30 -40 49 -34 57 5 7 17 24 26 39 l17 28 29 -32 c22 -25 27
-39 23 -63z m1347 57 c-10 -30 -106 -108 -152 -125 -16 -6 -18 -3 -12 26 12
52 24 77 37 77 7 0 40 13 73 29 33 15 61 27 63 26 1 -1 -3 -16 -9 -33z m-209
-145 l-15 -49 -36 41 c-46 52 -66 140 -38 168 9 9 23 -3 58 -49 l47 -61 -16
-50z m-3087 64 c-2 -3 -15 6 -29 20 -20 20 -24 32 -18 53 6 26 7 26 29 -21 12
-26 20 -50 18 -52z m-79 40 c11 -12 17 -23 15 -25 -8 -8 -98 -13 -109 -6 -21
13 -7 54 20 61 29 7 48 -1 74 -30z m583 3 c15 -3 30 -7 34 -9 7 -5 49 -82 49
-90 0 -3 -15 -3 -32 -1 -18 3 -41 5 -50 5 -9 1 -23 7 -31 15 -16 16 -23 101
-7 91 6 -4 22 -9 37 -11z m1607 -10 c3 -9 6 -35 6 -58 0 -39 -3 -44 -37 -63
-21 -11 -55 -30 -77 -42 -21 -12 -40 -20 -43 -18 -8 9 16 92 29 96 7 2 33 25
58 51 51 54 56 56 64 34z m-1360 -155 c-35 -130 -34 -129 -48 -92 -6 17 -14
35 -18 39 -4 4 1 19 11 33 24 35 61 114 61 132 1 11 3 11 10 -2 6 -11 1 -46
-16 -110z m1171 -18 c-13 -87 -16 -88 -71 -20 -55 67 -53 60 -27 148 2 10 19
-1 54 -35 49 -48 50 -50 44 -93z m-1927 99 l24 -30 -24 -2 c-25 -1 -58 -1 -73
1 -22 3 -78 43 -68 49 6 4 35 8 65 9 48 2 55 0 76 -27z m36 15 c3 -8 1 -15 -4
-15 -6 0 -10 7 -10 15 0 8 2 15 4 15 2 0 6 -7 10 -15z m536 -70 c43 -6 46 -9
73 -62 l27 -55 -37 6 c-71 13 -144 37 -148 49 -2 7 -6 27 -9 45 -6 32 -5 33
22 28 15 -2 47 -8 72 -11z m2560 0 c-7 -9 -15 -13 -17 -11 -7 7 7 26 19 26 6
0 6 -6 -2 -15z m-1042 -97 c-25 -45 -85 -93 -132 -104 -24 -6 -28 -4 -23 12 3
11 8 36 11 56 6 30 12 39 39 48 18 5 52 23 77 39 41 26 45 27 48 10 2 -11 -7
-38 -20 -61z m-193 -105 c-2 -16 -7 -41 -11 -56 l-6 -29 -35 34 c-20 18 -44
51 -54 73 -18 38 -26 125 -13 138 3 3 32 -26 65 -64 49 -57 59 -73 54 -96z
m-1196 21 c9 -20 9 -70 0 -79 -2 -2 -24 2 -49 8 -32 8 -59 26 -92 60 -70 71
-65 78 42 53 69 -16 91 -26 99 -42z m-601 23 c6 -7 16 -26 22 -42 11 -29 10
-29 -24 9 -20 21 -36 40 -36 42 0 10 29 3 38 -9z m66 -22 c3 -8 1 -15 -4 -15
-6 0 -10 7 -10 15 0 8 2 15 4 15 2 0 6 -7 10 -15z m1801 -65 c-3 -5 -15 -15
-26 -20 -15 -8 -19 -7 -19 4 0 13 14 21 43 25 5 0 5 -3 2 -9z m-1737 -214 c21
-22 21 -25 5 -30 -10 -3 -49 -6 -87 -7 -58 -2 -71 1 -83 17 -13 18 -11 19 48
26 33 4 66 9 73 12 18 7 20 7 44 -18z m84 -102 c23 -34 25 -40 10 -48 -20 -11
-71 -10 -120 4 -36 9 -116 69 -96 71 5 0 40 3 79 5 38 3 71 7 74 10 10 10 27
-4 53 -42z m1568 -262 c0 -18 84 -91 110 -97 30 -7 95 20 119 49 19 23 26 20
39 -18 7 -18 31 -54 53 -79 l40 -46 -25 -45 c-55 -98 -67 -221 -32 -339 l17
-58 29 21 c58 41 144 126 186 182 40 54 42 56 48 33 8 -32 31 -32 132 1 99 32
178 74 229 122 l40 37 20 -59 c17 -50 26 -63 57 -78 20 -11 57 -20 82 -21 46
-2 46 -2 46 -38 0 -34 3 -38 50 -58 28 -12 50 -23 50 -25 0 -2 -29 -18 -64
-34 -85 -40 -178 -103 -244 -168 -43 -42 -61 -52 -96 -56 -67 -8 -147 -50
-197 -103 -145 -157 -172 -180 -244 -203 -82 -26 -215 -51 -232 -45 -35 13 -7
73 88 189 l58 71 70 -5 c64 -4 152 9 191 28 119 59 152 77 190 108 25 20 68
59 96 86 65 65 108 103 164 145 25 19 49 38 54 42 4 4 -11 3 -35 -3 -24 -6
-91 -9 -149 -8 -58 1 -139 2 -180 3 -99 2 -130 -5 -214 -47 -117 -58 -181
-136 -193 -235 -5 -41 -14 -56 -69 -114 -76 -81 -96 -114 -165 -272 -58 -135
-104 -211 -144 -243 -38 -30 -52 -28 -64 11 -11 34 -36 172 -46 253 -3 27 -8
60 -10 74 -3 14 -7 48 -11 75 -3 28 -7 62 -10 76 -2 14 -6 52 -9 85 -4 32 -13
70 -22 83 -15 24 -16 24 -30 5 -12 -15 -14 -41 -9 -124 3 -58 8 -118 11 -135
l5 -30 -31 35 c-17 19 -49 58 -71 87 -35 46 -38 54 -27 74 22 43 37 118 35
184 0 36 0 65 2 65 2 0 14 -10 28 -23 13 -13 37 -31 53 -40 29 -17 29 -17 83
24 73 57 113 104 145 169 24 48 28 67 28 145 0 75 -5 101 -27 155 -21 49 -26
75 -21 103 3 20 10 37 14 37 5 0 9 -4 9 -8z m-2493 -19 c27 -35 93 -132 93
-138 0 -3 -10 -3 -22 0 -13 3 -32 6 -43 8 -11 2 -44 26 -72 55 -29 29 -57 52
-63 52 -5 0 -10 4 -10 9 0 6 19 14 43 19 59 14 58 14 74 -5z m92 1 c1 -1 0 -7
-4 -13 -10 -17 -29 -13 -43 9 -12 19 -11 20 15 14 16 -4 30 -8 32 -10z m-190
-74 c28 -22 51 -43 51 -46 0 -4 -39 -3 -87 1 -49 4 -100 8 -115 8 -16 0 -28 4
-28 8 0 11 93 69 112 69 9 0 39 -18 67 -40z m244 10 c55 -21 79 -40 90 -73 6
-15 2 -17 -21 -13 -15 2 -39 5 -54 5 -21 1 -32 11 -52 47 -36 64 -39 62 37 34z
m2306 -42 c10 -25 -3 -53 -47 -100 -35 -37 -43 -35 -36 9 5 29 54 107 72 112
1 1 7 -9 11 -21z m-135 -50 c24 -22 25 -26 15 -71 l-11 -49 -30 29 c-45 43
-51 59 -32 88 20 31 26 31 58 3z m-2484 -5 c0 -26 -35 -32 -68 -11 -18 11 -32
22 -32 24 0 3 22 3 50 2 31 -2 50 -8 50 -15z m158 -7 c1 -2 -15 -23 -37 -47
l-39 -44 -41 20 -42 20 27 31 c25 29 31 31 78 27 28 -3 52 -6 54 -7z m112 -7
c25 -1 48 -4 53 -6 10 -6 -111 -123 -126 -122 -7 0 -27 6 -45 13 l-34 12 47
57 c25 32 49 55 53 53 4 -2 27 -5 52 -7z m2385 -58 c4 -37 2 -46 -17 -60 -32
-24 -121 -71 -126 -67 -12 12 13 77 36 92 35 23 82 72 82 86 0 30 20 -11 25
-51z m1520 31 c-4 -15 -8 -34 -10 -42 -13 -62 -18 -68 -61 -85 -72 -28 -79
-20 -44 53 16 35 30 70 30 77 0 13 13 17 69 23 21 2 22 -1 16 -26z m138 20 c4
-2 4 -9 -1 -15 -5 -7 -12 -23 -15 -37 -5 -18 -17 -30 -44 -39 -21 -8 -43 -16
-50 -18 -18 -7 -2 78 20 105 9 12 69 15 90 4z m-3835 -17 c2 -2 -2 -13 -8 -25
-10 -19 -17 -21 -68 -14 -31 3 -59 8 -61 10 -2 2 4 13 14 23 14 17 26 19 69
15 28 -3 52 -7 54 -9z m3940 5 c25 0 2 -18 -42 -33 -41 -14 -44 -14 -39 1 11
31 26 43 47 38 12 -3 27 -6 34 -6z m-1943 -171 c-4 -30 -8 -56 -10 -58 -5 -4
-35 26 -77 79 l-36 45 19 37 19 37 46 -43 46 -44 -7 -53z m1980 104 c-49 -77
-63 -91 -92 -86 -50 7 -113 25 -113 32 0 3 37 19 83 35 45 16 86 33 92 37 5 5
18 9 28 9 19 0 19 -1 2 -27z m-4162 -38 c7 -17 -8 -29 -29 -21 -12 5 -13 8 -2
20 17 19 24 20 31 1z m2334 -99 c-22 -47 -32 -57 -81 -81 -31 -15 -58 -26 -61
-24 -2 2 1 25 6 51 10 44 14 49 62 71 29 14 61 32 72 40 29 23 30 4 2 -57z
m1373 55 c0 -5 -6 -13 -13 -19 -17 -15 -95 -41 -102 -34 -12 13 -2 20 39 31
25 6 48 15 51 21 8 12 25 13 25 1z m259 -15 c36 -13 74 -22 84 -20 28 4 15
-18 -30 -50 l-41 -29 -59 33 c-101 58 -99 56 -67 74 37 20 36 20 113 -8z
m-1841 -71 c36 -39 37 -42 28 -88 -9 -54 -19 -58 -52 -21 -47 49 -62 97 -55
174 l2 25 20 -25 c11 -14 37 -43 57 -65z m1674 42 c18 -17 89 -62 111 -70 20
-7 23 -23 5 -25 -52 -8 -117 -7 -138 1 -33 14 -90 56 -90 67 0 4 19 15 43 23
55 19 54 19 69 4z m-137 -57 c17 -19 17 -19 -14 -7 -32 12 -42 27 -18 27 8 0
22 -9 32 -20z m-1450 -100 c-20 -22 -35 -26 -35 -10 0 6 10 15 23 20 32 13 32
12 12 -10z m1058 -482 c5 -17 -38 -79 -103 -148 -29 -31 -98 -84 -145 -112
-11 -7 24 147 38 169 4 6 16 9 27 6 26 -7 99 30 135 67 31 33 41 36 48 18z
m-280 -54 c18 -9 33 -18 35 -19 1 -1 -8 -24 -20 -51 -21 -48 -92 -286 -104
-349 -5 -27 -22 -45 -102 -102 -54 -38 -126 -87 -162 -108 -36 -22 -93 -66
-126 -100 l-62 -61 -33 115 c-58 201 -49 281 52 446 80 132 84 135 161 140 69
6 177 38 271 80 28 13 53 24 55 24 2 1 17 -6 35 -15z"/>
<path d="M3529 3574 c-13 -15 -55 -51 -94 -82 -95 -75 -227 -210 -261 -267
-56 -97 -60 -212 -9 -322 13 -29 26 -53 28 -53 23 0 121 38 152 60 87 60 123
140 141 315 9 94 13 122 20 162 4 21 8 47 10 57 5 30 34 119 45 139 14 26 -4
21 -32 -9z"/>
<path d="M4680 5818 c-49 -25 -130 -145 -130 -193 0 -20 68 -58 101 -57 44 1
97 39 134 96 37 58 77 97 120 119 l30 15 -40 10 c-22 6 -71 15 -108 20 -59 8
-74 6 -107 -10z"/>
<path d="M3235 5457 c-88 -110 -109 -148 -107 -201 2 -51 58 -166 109 -224
l38 -42 51 25 c61 31 86 70 87 136 0 50 -4 63 -55 161 -35 68 -39 83 -47 168
l-6 65 -70 -88z"/>
<path d="M5130 5433 c-223 -80 -299 -148 -333 -300 -11 -48 -14 -126 -8 -190
1 -13 27 -12 106 4 39 7 104 40 133 67 36 32 51 69 57 133 8 92 25 153 60 226
34 69 32 77 -15 60z"/>
<path d="M5367 5096 c-170 -74 -318 -198 -354 -296 -22 -59 -22 -127 0 -182
11 -27 10 -36 -5 -68 -28 -55 -36 -126 -23 -202 6 -37 14 -70 18 -74 13 -13
143 13 201 39 30 14 71 38 91 54 55 42 148 171 200 275 l47 93 -50 3 -50 3 20
52 c21 53 32 214 21 300 -6 46 -15 47 -116 3z m18 -53 c-36 -56 -42 -63 -48
-56 -17 16 -6 53 21 67 40 22 46 19 27 -11z m68 -42 c4 -71 -3 -83 -68 -112
-78 -36 -79 -26 -8 81 37 55 68 98 69 97 2 -2 5 -31 7 -66z m-148 -30 c5 -33
2 -46 -21 -80 l-27 -41 -13 26 c-8 15 -17 43 -20 64 -6 34 -3 39 27 57 19 11
37 18 41 16 3 -1 9 -21 13 -42z m-115 -45 c0 -8 9 -36 20 -61 l20 -48 -31 -49
c-18 -27 -35 -46 -40 -41 -4 4 -17 42 -29 83 l-21 75 33 28 c36 30 48 34 48
13z m245 -105 c-18 -55 -23 -57 -147 -66 l-57 -3 25 38 c21 31 33 39 67 44 23
4 60 15 82 26 22 10 41 17 43 15 2 -2 -3 -26 -13 -54z m-332 -39 c32 -117 32
-114 -9 -140 -45 -29 -56 -21 -62 51 -3 40 1 66 18 105 12 29 25 52 29 52 3 0
14 -30 24 -68z m162 -73 c-48 -15 -75 -18 -75 -10 0 16 15 21 59 20 44 -1 44
-1 16 -10z"/>
<path d="M590 4617 c0 -17 40 -115 75 -184 52 -104 129 -131 305 -109 78 10
83 14 83 83 0 112 -68 159 -236 162 -86 2 -188 28 -202 52 -9 14 -25 11 -25
-4z"/>
<path d="M4830 4409 c-187 -46 -329 -129 -376 -222 -23 -43 -30 -156 -12 -180
26 -35 200 -27 279 13 48 25 99 85 142 168 39 73 90 216 85 237 -2 9 -31 5
-118 -16z"/>
<path d="M5103 4195 c-29 -13 -72 -37 -95 -53 -57 -40 -188 -171 -188 -188 0
-21 86 -78 128 -85 74 -13 181 34 307 135 72 58 158 104 233 127 23 6 42 15
42 18 0 6 -94 33 -155 45 -11 3 -38 8 -60 13 -79 18 -156 14 -212 -12z"/>
<path d="M5299 3936 c-68 -19 -141 -62 -194 -114 l-47 -45 35 -18 c41 -21 168
-65 212 -73 163 -30 309 2 414 92 34 29 35 29 15 49 -85 88 -310 144 -435 109z"/>
<path d="M5182 3505 c-67 -22 -143 -69 -196 -124 l-50 -50 45 -20 c41 -18 128
-45 185 -57 146 -30 326 15 425 107 l42 39 -24 19 c-41 32 -126 71 -186 85
-77 17 -188 18 -241 1z"/>
<path d="M5522 3265 c-81 -30 -178 -97 -174 -121 9 -44 46 -106 74 -120 59
-30 154 -17 258 36 32 17 63 22 122 24 43 0 78 4 78 8 0 9 -154 148 -190 171
-42 26 -99 27 -168 2z"/>
<path d="M4928 3214 c-140 -32 -242 -118 -307 -258 -29 -62 -22 -66 89 -61
200 9 313 50 414 150 53 54 100 129 93 149 -7 16 -116 37 -184 35 -26 -1 -74
-8 -105 -15z"/>
<path d="M1590 3170 c-89 -24 -146 -46 -197 -75 l-43 -24 -42 24 c-51 28 -135
53 -162 49 -52 -8 -74 -19 -130 -67 -60 -53 -87 -78 -118 -113 -17 -19 -16
-20 56 -20 63 -1 87 -7 162 -39 71 -30 101 -38 147 -37 74 1 100 18 134 87 26
53 26 55 8 75 -15 17 -16 20 -3 20 47 0 289 -88 316 -114 1 -2 -31 -4 -73 -4
-116 -1 -178 -23 -239 -85 -49 -51 -156 -186 -156 -198 0 -4 30 5 68 18 55 21
90 26 197 29 233 7 333 60 339 179 1 6 30 13 64 17 93 10 274 101 257 128 -18
29 -171 114 -260 146 -73 25 -241 28 -325 4z"/>
<path d="M5653 3007 c-18 -54 -5 -117 30 -140 31 -20 83 -35 147 -42 33 -4 77
-19 108 -36 53 -30 54 -30 47 -7 -22 76 -48 156 -60 179 -22 42 -78 63 -177
65 -81 2 -88 1 -95 -19z"/>
<path d="M5290 3003 c-58 -7 -135 -26 -173 -43 l-42 -19 70 -68 c39 -38 94
-84 122 -103 37 -24 51 -40 46 -50 -3 -8 -8 -37 -10 -65 -6 -65 23 -109 92
-145 l50 -25 1 -57 c1 -48 7 -67 43 -126 28 -47 44 -85 48 -121 3 -28 9 -51
13 -51 9 0 81 103 105 149 11 23 15 47 12 73 -5 35 -4 38 11 26 10 -7 21 -17
25 -23 7 -9 3 56 -8 115 -3 14 -7 41 -11 60 -8 50 -9 51 -23 93 -7 20 -17 37
-22 37 -5 0 -9 4 -9 10 0 5 20 15 45 21 25 6 48 16 51 21 8 13 -39 87 -87 136
-80 81 -180 138 -261 148 -24 3 -47 6 -53 8 -5 1 -21 1 -35 -1z"/>
<path d="M5743 2677 c-50 -73 -27 -133 77 -207 36 -25 80 -68 98 -94 17 -27
32 -47 33 -45 0 2 2 11 4 19 2 8 7 31 10 50 4 19 10 55 15 79 9 49 -2 99 -28
128 -35 40 -147 103 -181 103 -3 0 -16 -15 -28 -33z"/>
<path d="M5220 2599 c-19 -12 -41 -29 -48 -38 -18 -23 -8 -114 17 -154 37 -57
62 -119 64 -159 1 -21 7 -38 12 -38 12 0 84 101 108 153 19 41 17 78 -9 128
-17 33 -92 129 -102 129 -4 0 -23 -10 -42 -21z"/>
</g>
</svg>
